<svg width="140" height="110" viewBox="0 0 140 110" fill="none" xmlns="http://www.w3.org/2000/svg">
<rect width="140" height="110" fill="white"/>
<rect x="77" y="78" width="7" height="2" fill="black"/>
<path d="M37.192 70.3341C37.2623 70.8265 37.9303 70.9254 38.1402 70.4744L49.8655 45.289C49.9475 45.1127 50.1243 45 50.3188 45H59.6812C59.8757 45 60.0525 45.1127 60.1345 45.289L71.8598 70.4744C72.0697 70.9254 72.7377 70.8265 72.808 70.3341L79.9387 20.4293C79.9739 20.183 80.1848 20 80.4336 20H89.4235C89.7278 20 89.9615 20.2695 89.9185 20.5707L80.0613 89.5707C80.0261 89.817 79.8152 90 79.5664 90H68.3477C68.1387 90 67.9517 89.87 67.8789 89.6741L55.4687 56.2619C55.3073 55.8274 54.6927 55.8274 54.5313 56.2619L42.121 89.6741C42.0483 89.87 41.8613 90 41.6523 90H30.4336C30.1848 90 29.9739 89.817 29.9387 89.5707L20.0815 20.5707C20.0385 20.2695 20.2722 20 20.5765 20H29.5664C29.8152 20 30.0261 20.183 30.0613 20.4293L37.192 70.3341Z" fill="black"/>
<path d="M80 20.5C80 20.2239 80.2239 20 80.5 20H99.5C99.7761 20 100 20.2239 100 20.5V29.5C100 29.7761 99.7761 30 99.5 30H80.5C80.2239 30 80 29.7761 80 29.5V20.5Z" fill="black"/>
<rect x="80" y="50" width="20" height="10" fill="black"/>
<rect x="70" y="80" width="30" height="10" fill="black"/>
<circle cx="100" cy="40" r="19.5" fill="black" stroke="black"/>
<circle cx="100" cy="40" r="10.5" fill="white" stroke="black"/>
<path d="M88.4405 30.4318C88.4746 30.1843 88.6861 30 88.9358 30H99.5C99.7761 30 100 30.2239 100 30.5V49.5C100 49.7761 99.7761 50 99.5 50H86.3185C86.0152 50 85.7818 49.7322 85.8232 49.4318L88.4405 30.4318Z" fill="white"/>
<circle cx="100" cy="70" r="19.5" fill="black" stroke="black"/>
<circle cx="100" cy="70" r="10.5" fill="white" stroke="black"/>
<path d="M84.2804 60.4275C84.3164 60.182 84.5269 60 84.7751 60H99.5C99.7761 60 100 60.2239 100 60.5V79.5C100 79.7761 99.7761 80 99.5 80H81.99C81.6849 80 81.451 79.7293 81.4952 79.4275L84.2804 60.4275Z" fill="white"/>
</svg>
